# xmcd
#
# Track frame offsets:
#	150
#	17620
#	36793
#	55198
#
# Disc length: 1215 seconds
#
# Revision: 0
# Processed by: cddbd v1.5.2PL0 Copyright (c) Steve Scherf et al.
# Submitted via: dBpowerAMP V4.0
#
DISCID=2704bd04
DTITLE=Craig David - Fill Me In
DYEAR=2001
DGENRE=R&B
TTITLE0=Fill Me In (Radio Edit)
TTITLE1=Fill Me In (Full Crew Mix)
TTITLE2=Snippets: Rendezvous, 7 Days, Walking Away
TTITLE3=DATA
EXTD=
EXTT0=
EXTT1=
EXTT2=
EXTT3=
PLAYORDER=
